<svg width="591" height="590" viewBox="0 0 591 590" fill="none" xmlns="http://www.w3.org/2000/svg">
<path d="M295.295 16.5928C141.342 16.5928 16.8887 141.046 16.8887 294.999C16.8887 448.952 141.342 574.327 295.295 574.327C449.248 574.327 574.623 448.952 574.623 294.999C574.623 141.046 449.248 16.5928 295.295 16.5928ZM295.295 532.843C164.389 532.843 58.373 425.905 58.373 294.999C58.373 164.093 164.389 58.0771 295.295 58.0771C426.201 58.0771 533.139 165.015 533.139 295.921C533.139 425.905 426.201 532.843 295.295 532.843Z" fill="black"/>
<path d="M249.199 155.797C240.902 147.5 227.996 147.5 219.699 155.797C211.402 164.094 211.402 177 219.699 185.297L327.559 295L219.699 404.703C211.402 413 211.402 425.906 219.699 434.203C223.387 437.891 228.918 439.734 234.449 439.734C239.98 439.734 245.512 437.891 249.199 433.281L371.809 308.828C380.105 300.531 380.105 287.625 371.809 279.328L249.199 155.797Z" fill="black"/>
</svg>
